# xmcd CD database file
#
# Track frame offsets:
#	150
#	13800
#	25327
#	36210
#	48730
#	61005
#	74980
#	88372
#	100220
#	115210
#	127012
#	138507
#	151045
#	164825
#	178007
#	188802
#	200215
#	208505
#	218087
#	230397
#	244457
#	261260
#	269982
#	283735
#	297222
#	308717
#	316825
#	331642
#
# Disc length: 4557 seconds
#
# Revision: 2
# Processed by: cddbd v1.5.2PL0 Copyright (c) Steve Scherf et al.
# Submitted via: CDex 1.51
#
DISCID=bf11cb1c
DTITLE=Willie Nelson - Willie Nelson
DYEAR=1993
DGENRE=Country
TTITLE0=A Moment Isn´t Very Long
TTITLE1=Some Other Time
TTITLE2=Blame It On The Time
TTITLE3=Shelter Of Your Arms
TTITLE4=End Of Understanding
TTITLE5=Will You Remember Mine
TTITLE6=Everything But You
TTITLE7=I Hope So
TTITLE8=Face Of A Fighter
TTITLE9=Is There Something On Your Mind
TTITLE10=Follow Me Around
TTITLE11=Any Old Arms Won't Do
TTITLE12=You'll Always Have Someone
TTITLE13=I Just Don't Understand
TTITLE14=I Feel Sorry For Him
TTITLE15=Suffering In Silence
TTITLE16=You Wouldn't Cross The Street To Say Goodbye
TTITLE17=Ashamed
TTITLE18=I Can't Find The Time
TTITLE19=So Much To Do
TTITLE20=I Let My Mind Wander
TTITLE21=Why Are You Picking On Me
TTITLE22=Home Is Where You're Happy
TTITLE23=Undo The Wrong
TTITLE24=December Days
TTITLE25=Things To Remember
TTITLE26=And So Will You My Love
TTITLE27=Healing Hands Of Time
EXTD=YEAR: 1993
EXTT0=
EXTT1=
EXTT2=
EXTT3=
EXTT4=
EXTT5=
EXTT6=
EXTT7=
EXTT8=
EXTT9=
EXTT10=
EXTT11=
EXTT12=
EXTT13=
EXTT14=
EXTT15=
EXTT16=
EXTT17=
EXTT18=
EXTT19=
EXTT20=
EXTT21=
EXTT22=
EXTT23=
EXTT24=
EXTT25=
EXTT26=
EXTT27=
PLAYORDER=
